<svg width="300" height="300" viewBox="0 0 300 300" fill="none" xmlns="http://www.w3.org/2000/svg">
<path d="M0.194702 77.906C24.1529 77.906 43.5749 97.328 43.5749 121.286V299.938H0.194702V77.906Z" fill="#FBBA00"/>
<path d="M256.62 121.286C256.62 97.328 276.042 77.906 300 77.906V299.938H256.62V121.286Z" fill="white"/>
<path d="M177.13 256.116C201.332 256.116 220.952 275.736 220.952 299.938H0.194763V256.116H177.13Z" fill="#FBBA00"/>
<path d="M300 0V43.8222L0.194794 43.8222V0L300 0Z" fill="white"/>
<path d="M287.223 268.797L256.764 300L-6.22689e-05 44.2168L30.4595 13.0142L287.223 268.797Z" fill="white"/>
<path d="M221.37 122.142C204.377 139.071 177.018 138.88 160.263 121.716C160.196 121.647 160.196 121.537 160.264 121.469L269.491 12.6598L299.95 43.8623L221.37 122.142Z" fill="white"/>
</svg>
